<svg width="1876" height="1636" viewBox="0 0 1876 1636" fill="none" xmlns="http://www.w3.org/2000/svg">
<path d="M1464.48 891.969L1461.24 890.789C1463.02 891.209 1464.8 891.689 1466.57 892.089L1464.48 891.969ZM1223.94 429.522C1219.37 428.481 1214.82 426.761 1210.64 424.44C1203.96 422.819 1196.91 422.359 1189.9 422.959C1183.9 423.339 1178.2 424.48 1171.79 425.34C1165.38 426.081 1158.68 425.9 1152.2 424.34C1139.19 421.098 1128.13 412.475 1120.01 402.471C1111.9 392.327 1106.06 380.482 1103.91 367.917L1103.76 366.937L1104.69 366.816C1116.55 365.336 1128.31 364.436 1140.01 363.855L1148.76 363.435C1151.61 363.295 1155.26 363.375 1158.55 363.775C1165.34 364.556 1172.08 367.277 1177.92 370.978C1189.62 378.801 1196.36 389.946 1203.16 399.09C1210.05 408.253 1216.91 416.257 1226.62 421.078V421.098C1226.68 421.118 1226.73 421.118 1226.79 421.139L1223.94 429.522ZM419.144 1453.12C422.387 1424.18 426.508 1395.53 431.118 1366.96C436.645 1332.67 442.622 1298.49 449.459 1264.46L460.104 1213.52C464.01 1196.59 467.526 1179.61 471.823 1162.76C480.007 1129.01 488.836 1095.35 499.931 1062.14C498.036 1097.17 494.012 1131.79 489.09 1166.24C486.844 1183.51 483.777 1200.61 481.062 1217.78C478.289 1233.85 475.222 1249.85 472.234 1265.84L476.609 1272.72C475.769 1271.84 474.949 1270.94 474.089 1270.1C480.359 1283.27 485.594 1296.77 491.278 1310.14C497.001 1323.44 502.646 1336.79 508.681 1349.95C520.615 1376.33 533.038 1402.48 546.359 1428.15C559.856 1453.74 573.529 1479.25 588.803 1503.96C596.382 1516.4 604.214 1528.55 613.121 1540.49C614.254 1541.91 615.524 1543.49 616.813 1544.95L620.329 1548.86C622.594 1551.48 624.724 1554.34 626.95 1557.14L635.427 1568.36L647.909 1595.89C602.281 1586.17 557.473 1572.46 514.111 1554.94C477.742 1540.33 442.564 1522.72 408.792 1502.58L419.144 1453.12ZM563.274 1117.74C584.682 1106.8 604.644 1093.09 614.703 1072.2C620.876 1060.96 627.438 1049.69 636.169 1039.59C640.525 1034.59 645.487 1029.84 651.034 1025.9C656.542 1021.84 662.773 1019.1 668.32 1016.6C671.113 1015.34 673.789 1014.14 676.309 1012.74C677.266 1012.28 678.867 1011.24 680.118 1010.52C681.25 1009.72 682.344 1009.04 683.477 1008.18C688.048 1004.69 692.091 1000.35 695.861 995.671C703.263 986.147 708.987 974.943 714.456 963.558C711.819 975.963 707.932 988.208 701.545 999.653C698.322 1005.36 694.259 1010.68 689.474 1015.4C688.302 1016.6 686.876 1017.76 685.587 1018.9C684.239 1019.9 683.38 1020.7 681.661 1021.86C678.926 1023.74 676.094 1025.4 673.398 1026.96C662.48 1032.97 654.1 1039.45 646.951 1048.95C639.803 1058.22 633.552 1068.66 627.966 1079.57C621.911 1091.51 612.457 1102.39 601.988 1110.26C591.323 1118.14 579.838 1124.24 568.001 1128.79C544.386 1138.17 520.068 1142.89 495.79 1147.85C518.193 1136.77 541.73 1128.69 563.274 1117.74ZM123.364 1096.25C125.024 1126.06 130.337 1155.66 137.584 1185.75C121.665 1159.44 111 1129.41 105.883 1098.35C103.05 1082.89 102.035 1067.14 101.429 1051.49C101.058 1036.15 101.097 1020.84 100.921 1005.52C100.98 974.903 102.015 944.35 103.441 913.798C104.672 883.206 107.426 852.833 108.832 822.021C113.246 836.947 115.102 852.393 117.153 867.679C118.872 883.005 120.258 898.332 121.137 913.678C122.954 944.35 123.755 975.003 123.559 1005.62L122.837 1051.49C122.192 1066.44 122.7 1081.33 123.364 1096.25ZM1547.14 778.863C1547.12 778.863 1547.12 778.863 1547.11 778.863C1546.99 778.823 1547.05 778.823 1547.14 778.863ZM1557.67 803.873C1556.34 799.632 1554.84 795.47 1553.34 791.869C1555.19 795.67 1556.66 799.712 1557.67 803.873ZM1875.06 798.471C1874.8 796.15 1873.38 793.249 1871.48 791.629C1867.55 788.447 1864.66 788.587 1862.38 788.327C1860.05 788.227 1858.1 788.427 1856.21 788.687C1841.73 791.328 1830.11 796.971 1818.18 802.673L1809.45 807.195C1808.39 807.755 1806.54 808.715 1805.44 809.196C1804.27 809.736 1802.92 810.276 1801.54 810.816C1796.01 812.937 1790.05 814.638 1784.07 816.178C1759.97 822.181 1734.75 825.302 1709.6 827.323C1684.42 829.404 1659.07 830.284 1633.71 829.984C1609.57 829.704 1585.39 828.383 1561.31 826.042C1561.7 823.301 1561.36 819.66 1560.64 815.618L1561.5 815.598C1561.54 805.054 1558.69 794.59 1553.45 785.386C1552.77 784.245 1552.05 783.105 1551.19 782.025C1550.29 781.004 1549.64 779.964 1547.85 779.103V779.003C1547.79 778.483 1547.77 777.883 1547.77 777.263L1547.85 773.481L1548.43 757.995C1548.63 747.611 1548.37 737.106 1546.5 726.702C1544.57 716.818 1541.19 706.094 1532.67 698.931C1527.89 682.204 1522.71 665.057 1514.37 649.271C1506.42 633.985 1495.19 619.699 1480.21 610.335C1479.99 599.531 1476.85 589.947 1473.55 580.523C1469.83 570.459 1465.28 560.795 1460.07 551.491C1454.78 542.208 1449.03 533.204 1441.3 525.121C1439.52 523.18 1436.84 521.019 1435.07 519.618C1433.04 517.998 1431.63 516.557 1429.83 514.776C1426.49 511.255 1423.43 507.333 1420.55 503.232C1409.15 486.685 1400.28 467.857 1391.94 448.95C1383.64 429.962 1376.04 410.554 1368.48 391.086C1360.9 371.618 1353.4 352.051 1345.3 332.643C1337.13 313.255 1328.65 293.887 1317.5 275.379C1314.69 270.758 1311.66 266.216 1308.3 261.814C1306.64 259.633 1304.77 257.412 1302.97 255.391L1297.83 249.609L1277.26 226.28C1263.53 210.693 1249.65 195.167 1235.46 179.901C1221.28 164.635 1206.81 149.629 1191.97 134.983C1184.54 127.64 1176.96 120.477 1169.31 113.374C1161.44 106.151 1154.21 99.7684 1147.28 92.2853C1140.24 84.9424 1133.15 76.9191 1124.66 69.6962C1116.2 62.4132 1106.28 56.3908 1095.92 52.3092C1075.1 44.1058 1053.66 42.045 1032.78 41.1246C1011.66 40.4644 991.504 41.2247 970.976 41.2047L909.663 41.4047C868.801 41.3047 827.998 40.6244 787.292 38.6636C705.939 34.4819 624.782 26.3987 547.004 2.46898C535.089 -0.912388 523.37 -0.292134 512.47 1.20847C501.513 2.82913 491.063 5.65027 480.925 9.11167C460.67 16.0145 441.626 25.2582 423.266 35.4823C386.584 56.1107 352.695 80.9608 320.759 108.052C257.005 162.374 201.435 226.2 154.44 295.908C107.543 365.696 69.9232 442.107 43.6521 522.44C17.3418 602.732 2.75108 687.066 0.993165 771.66C0.0946695 813.978 2.30184 856.255 7.49748 898.252C13.4744 940.009 22.3617 981.345 33.5538 1021.9C39.2573 1042.15 45.6639 1062.18 52.8519 1081.91C60.0203 1101.65 67.4036 1121.32 75.783 1140.57C92.3856 1179.13 111.938 1216.32 133.443 1252.32C177 1323.92 230.5 1389.83 293.746 1444.81C356.64 1500.12 428.559 1544.71 505.322 1577.27C582.162 1609.78 664.374 1628.83 747.251 1634.31C830.146 1639.59 913.531 1631.69 993.907 1612.34C1034.1 1602.5 1073.54 1589.97 1112.06 1575.11C1150.44 1559.86 1187.98 1542.59 1224.14 1522.72L1223.14 1520.64C1185.56 1537.27 1147.49 1552.52 1108.62 1565.04C1069.85 1577.95 1030.43 1588.45 990.547 1596.27C964.999 1601.46 939.255 1605.5 913.433 1608.4C888.685 1556.86 855.949 1470.74 841.69 1405.68C832.412 1363.22 783.894 1202.47 778.776 1161.14C772.741 1112.36 757.974 1021.3 745.024 952.033C713.342 934.987 685.196 912.077 659.96 886.927C652.284 879.264 644.861 871.341 637.693 863.218L627.106 850.993C623.727 847.071 620.055 842.409 617.399 839.988C608.726 831.885 601.382 821.841 596.147 811.116C590.854 800.392 587.631 789.247 584.565 779.223C581.537 769.179 578.373 760.376 573.314 754.133C568.392 747.851 561.165 743.569 552.414 740.708C548.117 739.287 543.429 738.207 538.781 737.427L535.128 736.846L533.136 736.546C532.12 736.386 531.104 736.206 530.245 735.986C526.612 735.066 523.662 733.865 520.83 732.585C509.833 727.323 500.946 720.92 492.137 714.297C474.734 700.912 458.873 686.246 443.658 670.82C428.52 655.353 414.105 639.127 401.077 621.42C394.572 612.536 388.361 603.352 382.931 593.248C380.216 588.226 377.696 582.924 375.626 577.122C373.536 571.019 372.403 565.537 371.329 559.895C369.239 548.57 368.497 537.506 367.364 527.161C366.27 516.777 364.629 506.873 361.953 497.109C356.699 477.561 347.792 458.734 337.831 440.386C327.83 422.059 316.501 404.212 304.664 386.805C301.754 382.463 298.531 378.121 295.484 373.039C292.535 368.057 289.917 362.815 287.808 357.313C283.53 346.328 281.479 334.203 282.104 322.318C283.355 298.189 294.781 276.96 308.376 259.693C322.166 242.266 338.553 227.8 355.742 214.855C372.989 201.97 391.115 190.585 409.808 180.401C447.271 160.193 486.492 143.946 526.631 130.881C566.712 118.156 608.004 107.151 650.096 106.491C629.138 107.672 608.59 112.233 588.354 117.576C568.138 122.918 548.176 129.38 528.526 136.643C489.285 151.249 451.119 168.956 415.14 190.285C397.17 200.929 379.65 212.354 363.36 225.259C347.089 238.124 331.815 252.39 319.568 268.717C307.399 284.903 298.336 303.711 297.867 322.979C297.613 332.543 299.449 342.046 303.141 350.93C304.977 355.372 307.243 359.674 309.841 363.815C312.36 367.837 315.564 371.979 318.708 376.42C331.248 393.967 343.28 411.855 354.199 430.762C365.039 449.67 374.747 469.718 380.997 491.567C384.103 502.431 386.134 513.776 387.404 524.72C388.732 535.705 389.592 546.089 391.545 555.873C392.502 560.775 393.674 565.797 395.139 569.799C396.721 574.08 398.83 578.462 401.233 582.784C406.038 591.467 411.878 599.911 418.05 608.114C443.228 640.707 473.034 671.08 505.302 696.09C513.369 702.172 521.865 708.015 529.932 711.776C534.405 713.837 535.655 713.837 542.296 714.837C548 715.778 553.547 717.018 559.231 718.879C570.423 722.401 582.358 728.923 590.698 739.487C599.116 749.952 602.945 761.956 606.168 772.241C609.332 782.725 612.106 792.269 616.285 800.772C620.407 809.276 625.817 816.719 632.595 823.141C637.654 828.023 640.408 831.905 644.002 836.007L654.218 847.931C661.093 855.774 668.144 863.398 675.449 870.761C704.572 900.112 737.621 925.643 774.479 942.049C792.878 950.233 812.216 955.955 831.963 958.336C834.424 958.676 836.905 958.876 839.366 959.116C841.729 959.256 844.854 959.536 845.499 959.416C847.608 959.216 849.894 958.076 852.394 955.275C857.394 949.633 861.184 940.069 863.957 930.565C869.543 911.137 872.297 890.028 874.661 869.02C876.985 847.951 878.607 826.563 880.071 805.234C885.58 719.779 887.884 633.965 884.876 548.37C883.548 505.573 880.833 462.775 874.895 420.398C871.868 399.23 868.02 378.161 862.59 357.513C857.179 336.904 850.363 316.416 839.307 298.109C851.339 315.776 859.328 336.064 865.852 356.532C872.219 377.101 876.907 398.189 880.794 419.398C888.47 461.835 892.904 504.792 895.951 547.79C900.131 615.977 900.737 684.285 899.116 752.553L913.824 756.594C912.085 756.334 910.366 756.074 908.628 755.754C923.394 763.697 939.86 767.099 955.506 771.64C971.347 775.722 987.031 779.824 1002.25 784.546C1017.31 789.548 1032.31 794.67 1044.85 802.653C1047.97 804.594 1051 806.575 1053.73 808.795C1055.12 809.896 1056.41 811.056 1057.68 812.217L1062.49 816.659C1069.01 822.401 1075.69 827.743 1082.62 832.725C1096.55 842.549 1111.14 851.253 1126.57 858.396C1142.04 865.358 1158.1 871.541 1175.36 874.202C1183.98 875.503 1192.86 876.303 1201.87 875.102C1210.8 873.962 1220.07 871.041 1227.59 865.158C1235.07 859.256 1240.13 850.852 1242.38 842.269C1244.72 833.685 1244.98 825.002 1244.16 816.619C1244.27 813.357 1244.31 810.456 1244.33 807.855C1241.27 806.254 1238.24 804.654 1235.35 803.093L1226.13 794.81C1226.11 794.81 1226.11 794.81 1226.09 794.81C1226.09 794.81 1226.07 794.81 1226.05 794.81C1219.17 794.61 1212.46 793.849 1205.5 792.509L1202.81 791.929L1199.64 791.148C1197.51 790.568 1195.44 789.908 1193.45 789.148C1189.43 787.647 1185.58 785.886 1181.98 783.805C1153.47 766.598 1135.36 741.528 1117.82 717.578C1109.05 705.554 1100.93 693.209 1092.1 681.664C1087.76 675.782 1083.17 670.219 1078.15 665.097C1073.11 660.055 1067.54 655.373 1060.43 653.192C1067.95 652.792 1075.42 656.134 1081.92 660.035C1088.5 663.997 1094.36 668.959 1100.09 673.921C1111.26 684.145 1121.45 695.149 1131.32 706.134C1141.42 716.938 1150.85 728.063 1161.07 737.967C1171.14 747.931 1181.56 757.395 1192.83 763.497C1195.62 764.998 1198.41 766.418 1201.22 767.479C1202.65 768.039 1204.06 768.499 1205.46 768.919L1207.59 769.46L1210.25 770.06C1216.52 771.52 1223.32 772.461 1229.88 772.841C1243.16 773.901 1256.46 771.62 1270.23 768.559C1283.94 765.338 1298.28 760.656 1313.81 759.155C1321.52 758.595 1329.47 758.895 1336.96 760.836C1344.46 762.757 1351.41 766.058 1357.48 770.42C1352.35 768.919 1347.25 767.999 1342.19 767.579C1341.88 767.539 1341.57 767.499 1341.25 767.479C1341.08 767.479 1340.9 767.479 1340.73 767.479C1340.35 767.439 1339.98 767.439 1339.59 767.419C1384.3 791.008 1432.29 807.715 1481.3 819.54C1531.17 831.425 1582.19 838.167 1633.44 840.588C1684.69 842.709 1736.24 841.589 1787.41 830.504C1793.82 828.984 1800.21 827.203 1806.61 824.802C1808.22 824.202 1809.84 823.561 1811.57 822.761C1813.39 821.961 1814.41 821.421 1816.18 820.5L1824.54 816.258C1835.4 811.036 1847.07 805.914 1857.61 804.013C1854.92 807.715 1851.21 811.617 1847.44 815.238C1838.43 823.681 1828.57 831.965 1818.51 838.768C1798 852.433 1774.58 861.797 1750.61 869.06C1726.55 876.243 1701.69 881.045 1676.68 885.046C1651.66 888.948 1626.39 891.669 1601.05 893.79C1588.42 894.77 1575.6 895.891 1563.1 896.331C1550.5 896.711 1537.87 896.311 1525.23 895.371C1491.46 892.649 1457.94 886.367 1424.93 877.743C1408.58 873.462 1392.37 868.68 1376.33 863.398C1358.4 857.435 1340.67 850.933 1323.11 843.91C1296.33 833.145 1270.04 821.04 1244.33 807.755C1241.34 806.194 1238.34 804.674 1235.35 803.093C1238.34 804.694 1241.34 806.254 1244.33 807.835C1246.13 808.775 1247.93 809.736 1249.74 810.656C1253.14 812.417 1256.68 814.198 1260.27 815.978C1280.98 826.343 1302.03 835.966 1323.38 844.85C1342.82 916.639 1389.56 1129.43 1340.96 1220.16C1291.46 1312.6 1213.35 1292.31 1196.85 1283.29C1180.34 1274.26 1168.23 1255.12 1180.34 1235.95C1192.45 1216.78 1180.34 1193.13 1174.86 1189.75C1169.35 1186.35 1167.14 1176.2 1177.04 1168.32C1186.95 1160.42 1190.25 1142.39 1168.23 1140.13C1146.26 1137.89 1079.15 1170.58 1072.52 1214.54C1065.92 1258.5 1083.54 1359.94 1138.54 1387.01C1193.55 1414.04 1259.57 1439.99 1360.77 1402.78C1461.98 1365.56 1502.67 1290.05 1525.8 1231.45C1548.63 1173.5 1583.73 1079.67 1571.76 904.314C1581.78 904.094 1591.64 903.594 1601.64 903.174C1627.17 901.913 1652.74 900.052 1678.27 896.971C1703.76 893.93 1729.23 889.488 1754.31 882.545C1779.31 875.643 1804.15 866.219 1826.52 851.433C1837.81 843.87 1847.73 835.606 1857.61 826.503C1862.5 821.761 1867.3 817.179 1871.66 810.496C1872.73 808.735 1873.81 806.855 1874.61 804.034C1875 802.593 1875.33 800.812 1875.06 798.471Z" fill="#716C4A"/>
</svg>
